<svg height="2942" width="720" xmlns="http://www.w3.org/2000/svg">
<rect height="2942" fill="#555" width="720"></rect>
<text fill="#7f7" font-family="Courier New" font-size="12" xml:space="preserve">
<tspan x="10" y="26">21 megabytes installed</tspan>
<tspan x="10" y="42"></tspan>
<tspan x="10" y="58">node_modules</tspan>
<tspan x="10" y="74">└─┬ smokestack@3.4.1 </tspan>
<tspan x="10" y="90">  ├─┬ bl@0.9.5 </tspan>
<tspan x="10" y="106">  │ └─┬ readable-stream@1.0.34 </tspan>
<tspan x="10" y="122">  │   ├── core-util-is@1.0.2 </tspan>
<tspan x="10" y="138">  │   ├── inherits@2.0.3 </tspan>
<tspan x="10" y="154">  │   ├── isarray@0.0.1 </tspan>
<tspan x="10" y="170">  │   └── string_decoder@0.10.31 </tspan>
<tspan x="10" y="186">  ├─┬ chrome-launch@1.1.4 </tspan>
<tspan x="10" y="202">  │ ├─┬ chrome-location@1.2.1 </tspan>
<tspan x="10" y="218">  │ │ ├── userhome@1.0.0 </tspan>
<tspan x="10" y="234">  │ │ └─┬ which@1.2.14 </tspan>
<tspan x="10" y="250">  │ │   └── isexe@2.0.0 </tspan>
<tspan x="10" y="266">  │ ├─┬ quick-tmp@0.0.0 </tspan>
<tspan x="10" y="282">  │ │ ├── first-match@0.0.1 </tspan>
<tspan x="10" y="298">  │ │ └── osenv@0.0.3 </tspan>
<tspan x="10" y="314">  │ └── shallow-copy@0.0.1 </tspan>
<tspan x="10" y="330">  ├── convert-source-map@1.5.0 </tspan>
<tspan x="10" y="346">  ├─┬ debug@2.6.4 </tspan>
<tspan x="10" y="362">  │ └── ms@0.7.3 </tspan>
<tspan x="10" y="378">  ├─┬ firefox-launch@1.0.2 </tspan>
<tspan x="10" y="394">  │ └── firefox-location@1.0.2 </tspan>
<tspan x="10" y="410">  ├── is-dom@1.0.9 </tspan>
<tspan x="10" y="426">  ├─┬ localtunnel@1.8.2 </tspan>
<tspan x="10" y="442">  │ ├─┬ debug@2.2.0 </tspan>
<tspan x="10" y="458">  │ │ └── ms@0.7.1 </tspan>
<tspan x="10" y="474">  │ ├── openurl@1.1.0 </tspan>
<tspan x="10" y="490">  │ ├─┬ request@2.78.0 </tspan>
<tspan x="10" y="506">  │ │ ├── aws-sign2@0.6.0 </tspan>
<tspan x="10" y="522">  │ │ ├── aws4@1.6.0 </tspan>
<tspan x="10" y="538">  │ │ ├── caseless@0.11.0 </tspan>
<tspan x="10" y="554">  │ │ ├─┬ combined-stream@1.0.5 </tspan>
<tspan x="10" y="570">  │ │ │ └── delayed-stream@1.0.0 </tspan>
<tspan x="10" y="586">  │ │ ├── extend@3.0.0 </tspan>
<tspan x="10" y="602">  │ │ ├── forever-agent@0.6.1 </tspan>
<tspan x="10" y="618">  │ │ ├─┬ form-data@2.1.4 </tspan>
<tspan x="10" y="634">  │ │ │ └── asynckit@0.4.0 </tspan>
<tspan x="10" y="650">  │ │ ├─┬ har-validator@2.0.6 </tspan>
<tspan x="10" y="666">  │ │ │ ├─┬ chalk@1.1.3 </tspan>
<tspan x="10" y="682">  │ │ │ │ ├── ansi-styles@2.2.1 </tspan>
<tspan x="10" y="698">  │ │ │ │ ├── escape-string-regexp@1.0.5 </tspan>
<tspan x="10" y="714">  │ │ │ │ ├── has-ansi@2.0.0 </tspan>
<tspan x="10" y="730">  │ │ │ │ └── supports-color@2.0.0 </tspan>
<tspan x="10" y="746">  │ │ │ ├─┬ commander@2.9.0 </tspan>
<tspan x="10" y="762">  │ │ │ │ └── graceful-readlink@1.0.1 </tspan>
<tspan x="10" y="778">  │ │ │ ├─┬ is-my-json-valid@2.16.0 </tspan>
<tspan x="10" y="794">  │ │ │ │ ├── generate-function@2.0.0 </tspan>
<tspan x="10" y="810">  │ │ │ │ ├─┬ generate-object-property@1.2.0 </tspan>
<tspan x="10" y="826">  │ │ │ │ │ └── is-property@1.0.2 </tspan>
<tspan x="10" y="842">  │ │ │ │ └── jsonpointer@4.0.1 </tspan>
<tspan x="10" y="858">  │ │ │ └─┬ pinkie-promise@2.0.1 </tspan>
<tspan x="10" y="874">  │ │ │   └── pinkie@2.0.4 </tspan>
<tspan x="10" y="890">  │ │ ├─┬ hawk@3.1.3 </tspan>
<tspan x="10" y="906">  │ │ │ ├── boom@2.10.1 </tspan>
<tspan x="10" y="922">  │ │ │ ├── cryptiles@2.0.5 </tspan>
<tspan x="10" y="938">  │ │ │ ├── hoek@2.16.3 </tspan>
<tspan x="10" y="954">  │ │ │ └── sntp@1.0.9 </tspan>
<tspan x="10" y="970">  │ │ ├─┬ http-signature@1.1.1 </tspan>
<tspan x="10" y="986">  │ │ │ ├── assert-plus@0.2.0 </tspan>
<tspan x="10" y="1002">  │ │ │ ├─┬ jsprim@1.4.0 </tspan>
<tspan x="10" y="1018">  │ │ │ │ ├── assert-plus@1.0.0 </tspan>
<tspan x="10" y="1034">  │ │ │ │ ├── extsprintf@1.0.2 </tspan>
<tspan x="10" y="1050">  │ │ │ │ ├── json-schema@0.2.3 </tspan>
<tspan x="10" y="1066">  │ │ │ │ └── verror@1.3.6 </tspan>
<tspan x="10" y="1082">  │ │ │ └─┬ sshpk@1.13.0 </tspan>
<tspan x="10" y="1098">  │ │ │   ├── asn1@0.2.3 </tspan>
<tspan x="10" y="1114">  │ │ │   ├── assert-plus@1.0.0 </tspan>
<tspan x="10" y="1130">  │ │ │   ├── bcrypt-pbkdf@1.0.1 </tspan>
<tspan x="10" y="1146">  │ │ │   ├─┬ dashdash@1.14.1 </tspan>
<tspan x="10" y="1162">  │ │ │   │ └── assert-plus@1.0.0 </tspan>
<tspan x="10" y="1178">  │ │ │   ├── ecc-jsbn@0.1.1 </tspan>
<tspan x="10" y="1194">  │ │ │   ├─┬ getpass@0.1.7 </tspan>
<tspan x="10" y="1210">  │ │ │   │ └── assert-plus@1.0.0 </tspan>
<tspan x="10" y="1226">  │ │ │   ├── jodid25519@1.0.2 </tspan>
<tspan x="10" y="1242">  │ │ │   ├── jsbn@0.1.1 </tspan>
<tspan x="10" y="1258">  │ │ │   └── tweetnacl@0.14.5 </tspan>
<tspan x="10" y="1274">  │ │ ├── is-typedarray@1.0.0 </tspan>
<tspan x="10" y="1290">  │ │ ├── isstream@0.1.2 </tspan>
<tspan x="10" y="1306">  │ │ ├── json-stringify-safe@5.0.1 </tspan>
<tspan x="10" y="1322">  │ │ ├─┬ mime-types@2.1.15 </tspan>
<tspan x="10" y="1338">  │ │ │ └── mime-db@1.27.0 </tspan>
<tspan x="10" y="1354">  │ │ ├── node-uuid@1.4.8 </tspan>
<tspan x="10" y="1370">  │ │ ├── oauth-sign@0.8.2 </tspan>
<tspan x="10" y="1386">  │ │ ├── qs@6.3.2 </tspan>
<tspan x="10" y="1402">  │ │ ├── stringstream@0.0.5 </tspan>
<tspan x="10" y="1418">  │ │ ├─┬ tough-cookie@2.3.2 </tspan>
<tspan x="10" y="1434">  │ │ │ └── punycode@1.4.1 </tspan>
<tspan x="10" y="1450">  │ │ └── tunnel-agent@0.4.3 </tspan>
<tspan x="10" y="1466">  │ └─┬ yargs@3.29.0 </tspan>
<tspan x="10" y="1482">  │   ├── camelcase@1.2.1 </tspan>
<tspan x="10" y="1498">  │   ├─┬ cliui@3.2.0 </tspan>
<tspan x="10" y="1514">  │   │ ├─┬ string-width@1.0.2 </tspan>
<tspan x="10" y="1530">  │   │ │ ├── code-point-at@1.1.0 </tspan>
<tspan x="10" y="1546">  │   │ │ └─┬ is-fullwidth-code-point@1.0.0 </tspan>
<tspan x="10" y="1562">  │   │ │   └── number-is-nan@1.0.1 </tspan>
<tspan x="10" y="1578">  │   │ ├─┬ strip-ansi@3.0.1 </tspan>
<tspan x="10" y="1594">  │   │ │ └── ansi-regex@2.1.1 </tspan>
<tspan x="10" y="1610">  │   │ └── wrap-ansi@2.1.0 </tspan>
<tspan x="10" y="1626">  │   ├── decamelize@1.2.0 </tspan>
<tspan x="10" y="1642">  │   ├─┬ os-locale@1.4.0 </tspan>
<tspan x="10" y="1658">  │   │ └─┬ lcid@1.0.0 </tspan>
<tspan x="10" y="1674">  │   │   └── invert-kv@1.0.0 </tspan>
<tspan x="10" y="1690">  │   ├── window-size@0.1.4 </tspan>
<tspan x="10" y="1706">  │   └── y18n@3.2.1 </tspan>
<tspan x="10" y="1722">  ├── minimist@1.1.3 </tspan>
<tspan x="10" y="1738">  ├─┬ mkdirp@0.5.1 </tspan>
<tspan x="10" y="1754">  │ └── minimist@0.0.8 </tspan>
<tspan x="10" y="1770">  ├─┬ rimraf@2.3.4 </tspan>
<tspan x="10" y="1786">  │ └─┬ glob@4.5.3 </tspan>
<tspan x="10" y="1802">  │   ├─┬ inflight@1.0.6 </tspan>
<tspan x="10" y="1818">  │   │ └── wrappy@1.0.2 </tspan>
<tspan x="10" y="1834">  │   ├─┬ minimatch@2.0.10 </tspan>
<tspan x="10" y="1850">  │   │ └─┬ brace-expansion@1.1.7 </tspan>
<tspan x="10" y="1866">  │   │   ├── balanced-match@0.4.2 </tspan>
<tspan x="10" y="1882">  │   │   └── concat-map@0.0.1 </tspan>
<tspan x="10" y="1898">  │   └── once@1.4.0 </tspan>
<tspan x="10" y="1914">  ├─┬ shoe@0.0.15 </tspan>
<tspan x="10" y="1930">  │ ├─┬ sockjs@0.3.7 </tspan>
<tspan x="10" y="1946">  │ │ ├── faye-websocket@0.4.4 </tspan>
<tspan x="10" y="1962">  │ │ └── node-uuid@1.3.3 </tspan>
<tspan x="10" y="1978">  │ └── sockjs-client@0.0.0-unreleasable </tspan>
<tspan x="10" y="1994">  ├─┬ source-map@0.4.4 </tspan>
<tspan x="10" y="2010">  │ └── amdefine@1.0.1 </tspan>
<tspan x="10" y="2026">  ├─┬ source-map-support@0.2.10 </tspan>
<tspan x="10" y="2042">  │ └── source-map@0.1.32 </tspan>
<tspan x="10" y="2058">  ├─┬ split@0.3.3 </tspan>
<tspan x="10" y="2074">  │ └── through@2.3.8 </tspan>
<tspan x="10" y="2090">  ├── synthetic-dom-events@0.2.2 </tspan>
<tspan x="10" y="2106">  ├─┬ tap-finished@0.0.1 </tspan>
<tspan x="10" y="2122">  │ └─┬ tap-parser@0.2.1 </tspan>
<tspan x="10" y="2138">  │   └─┬ split@0.1.2 </tspan>
<tspan x="10" y="2154">  │     └── through@1.1.2 </tspan>
<tspan x="10" y="2170">  ├─┬ through2@0.6.5 </tspan>
<tspan x="10" y="2186">  │ └── xtend@4.0.1 </tspan>
<tspan x="10" y="2202">  ├─┬ wd@0.3.12 </tspan>
<tspan x="10" y="2218">  │ ├─┬ archiver@0.14.4 </tspan>
<tspan x="10" y="2234">  │ │ ├── async@0.9.2 </tspan>
<tspan x="10" y="2250">  │ │ ├── buffer-crc32@0.2.13 </tspan>
<tspan x="10" y="2266">  │ │ ├── glob@4.3.5 </tspan>
<tspan x="10" y="2282">  │ │ ├── lazystream@0.1.0 </tspan>
<tspan x="10" y="2298">  │ │ ├── lodash@3.2.0 </tspan>
<tspan x="10" y="2314">  │ │ ├─┬ tar-stream@1.1.5 </tspan>
<tspan x="10" y="2330">  │ │ │ └── end-of-stream@1.4.0 </tspan>
<tspan x="10" y="2346">  │ │ └─┬ zip-stream@0.5.2 </tspan>
<tspan x="10" y="2362">  │ │   ├─┬ compress-commons@0.2.9 </tspan>
<tspan x="10" y="2378">  │ │   │ ├── crc32-stream@0.3.4 </tspan>
<tspan x="10" y="2394">  │ │   │ └── node-int64@0.3.3 </tspan>
<tspan x="10" y="2410">  │ │   └── lodash@3.2.0 </tspan>
<tspan x="10" y="2426">  │ ├── async@1.0.0 </tspan>
<tspan x="10" y="2442">  │ ├── lodash@3.9.3 </tspan>
<tspan x="10" y="2458">  │ ├── q@1.4.1 </tspan>
<tspan x="10" y="2474">  │ ├─┬ request@2.55.0 </tspan>
<tspan x="10" y="2490">  │ │ ├── aws-sign2@0.5.0 </tspan>
<tspan x="10" y="2506">  │ │ ├── caseless@0.9.0 </tspan>
<tspan x="10" y="2522">  │ │ ├─┬ combined-stream@0.0.7 </tspan>
<tspan x="10" y="2538">  │ │ │ └── delayed-stream@0.0.5 </tspan>
<tspan x="10" y="2554">  │ │ ├─┬ form-data@0.2.0 </tspan>
<tspan x="10" y="2570">  │ │ │ └── async@0.9.2 </tspan>
<tspan x="10" y="2586">  │ │ ├─┬ har-validator@1.8.0 </tspan>
<tspan x="10" y="2602">  │ │ │ └── bluebird@2.11.0 </tspan>
<tspan x="10" y="2618">  │ │ ├── hawk@2.3.1 </tspan>
<tspan x="10" y="2634">  │ │ ├─┬ http-signature@0.10.1 </tspan>
<tspan x="10" y="2650">  │ │ │ ├── asn1@0.1.11 </tspan>
<tspan x="10" y="2666">  │ │ │ ├── assert-plus@0.1.5 </tspan>
<tspan x="10" y="2682">  │ │ │ └── ctype@0.5.3 </tspan>
<tspan x="10" y="2698">  │ │ ├─┬ mime-types@2.0.14 </tspan>
<tspan x="10" y="2714">  │ │ │ └── mime-db@1.12.0 </tspan>
<tspan x="10" y="2730">  │ │ ├── oauth-sign@0.6.0 </tspan>
<tspan x="10" y="2746">  │ │ └── qs@2.4.2 </tspan>
<tspan x="10" y="2762">  │ ├── underscore.string@3.0.3 </tspan>
<tspan x="10" y="2778">  │ └── vargs@0.1.0 </tspan>
<tspan x="10" y="2794">  └─┬ xhr@2.4.0 </tspan>
<tspan x="10" y="2810">    ├─┬ global@4.3.2 </tspan>
<tspan x="10" y="2826">    │ ├─┬ min-document@2.19.0 </tspan>
<tspan x="10" y="2842">    │ │ └── dom-walk@0.1.1 </tspan>
<tspan x="10" y="2858">    │ └── process@0.5.2 </tspan>
<tspan x="10" y="2874">    ├── is-function@1.0.1 </tspan>
<tspan x="10" y="2890">    └─┬ parse-headers@2.0.1 </tspan>
<tspan x="10" y="2906">      ├── for-each@0.3.2 </tspan>
<tspan x="10" y="2922">      └── trim@0.0.1</tspan>
</text>
</svg>
